<svg id="LOGOS" xmlns="http://www.w3.org/2000/svg" viewBox="0 0 301 117"><defs><style>.cls-1{fill:#e03875;}</style></defs><path d="M117.19,49.75c0-7.38,4.3-11.68,14.34-11.68a46,46,0,0,1,11,1.33l-.85,6.6a59,59,0,0,0-9.86-1c-5.27,0-7,1.81-7,6.11V66.57c0,4.29,1.69,6.11,7,6.11a59,59,0,0,0,9.86-1l.85,6.6a46,46,0,0,1-11,1.33c-10,0-14.34-4.3-14.34-11.68Z"/><path d="M158.82,79.58C148.71,79.58,146,74,146,68V60.52c0-6.05,2.72-11.62,12.83-11.62s12.82,5.57,12.82,11.62V68C171.64,74,168.92,79.58,158.82,79.58Zm0-24.39c-3.94,0-5.45,1.76-5.45,5.09V68.2c0,3.33,1.51,5.08,5.45,5.08s5.44-1.75,5.44-5.08V60.28C164.26,57,162.75,55.19,158.82,55.19Z"/><path d="M194.09,79V58.4c0-1.57-.67-2.36-2.36-2.36s-5,1.09-7.69,2.48V79h-7.38V49.51h5.63L183,52a29.49,29.49,0,0,1,11.8-3.09c4.9,0,6.66,3.45,6.66,8.71V79Z"/><path d="M216.65,79.58a34.66,34.66,0,0,1-10.16-1.7l1-5.62a33.18,33.18,0,0,0,8.77,1.27c3.27,0,3.75-.73,3.75-3,0-1.81-.36-2.72-5.14-3.87-7.2-1.75-8.05-3.57-8.05-9.26,0-5.93,2.6-8.53,11-8.53a38.51,38.51,0,0,1,8.83,1L226,55.8a52.36,52.36,0,0,0-8.11-.85c-3.21,0-3.75.73-3.75,2.54,0,2.36.18,2.54,4.18,3.57,8.22,2.18,9,3.27,9,9.32C227.3,76.07,225.55,79.58,216.65,79.58Z"/><path d="M239.52,49.51V70.08c0,1.57.66,2.36,2.36,2.36s5-1.09,7.68-2.48V49.51h7.38V79h-5.62l-.73-2.48a29.44,29.44,0,0,1-11.8,3.09c-4.9,0-6.65-3.45-6.65-8.72V49.51Z"/><path d="M263.29,79V37.47l7.38-1V79Z"/><path class="cls-1" d="M61.5,90.59A31.76,31.76,0,1,1,83,35.47h0l-7.51,7.88h0a20.87,20.87,0,1,0,0,31h0L83,82.2h0A31.66,31.66,0,0,1,61.5,90.59Z"/><path class="cls-1" d="M87.06,74.7a2.6,2.6,0,1,1,2.6-2.6A2.6,2.6,0,0,1,87.06,74.7Z"/><path class="cls-1" d="M61.3,65.71a6.88,6.88,0,1,1,6.88-6.88A6.88,6.88,0,0,1,61.3,65.71Z"/><path class="cls-1" d="M90.05,65.81a2.6,2.6,0,1,1,2.6-2.6A2.61,2.61,0,0,1,90.05,65.81Z"/><path class="cls-1" d="M82.31,65.51a2.6,2.6,0,1,1,2.6-2.6A2.6,2.6,0,0,1,82.31,65.51Z"/><path class="cls-1" d="M90.05,57.06a2.6,2.6,0,1,1,2.6-2.6A2.61,2.61,0,0,1,90.05,57.06Z"/><path class="cls-1" d="M82.31,57.36a2.6,2.6,0,1,1,2.6-2.6A2.6,2.6,0,0,1,82.31,57.36Z"/><path class="cls-1" d="M87.21,48.31a2.6,2.6,0,1,1,2.6-2.6A2.6,2.6,0,0,1,87.21,48.31Z"/></svg>